<svg xmlns="http://www.w3.org/2000/svg" width="57.37" height="88.546" viewBox="0 -8 57.37 88.546"><g data-name="グループ 2503"><path d="M47.385 70.267c2.935-9.416-1.817-14.326-9.478-18.812 4.472 6.004-2.68 12.925 9.478 18.812Z" fill="#969696" fill-rule="evenodd" data-name="パス 2087"/><path d="M34.145 64.822c4.5-7.715 1.602-12.87-3.818-18.177 2.426 6.061-5.049 10.833 3.818 18.177Z" fill="#969696" fill-rule="evenodd" data-name="パス 2088"/><path d="M20.064 26.211c-2.001 5.017-9.17 3.68-8.058 13.097 7.067-2.113 8.27-6.849 8.058-13.097Z" fill="#969696" fill-rule="evenodd" data-name="パス 2089"/><path d="M13.755 49.468c-3.525-9.426-7.891-6.382-12.381-10.094 4.68 8.929 4.995 11.679 12.381 10.094Z" fill="#969696" fill-rule="evenodd" data-name="パス 2090"/><path d="M21.247 58.921c-5.759-9.53-9.92-5.391-15.581-8.546 6.922 8.767 7.822 11.686 15.58 8.546Z" fill="#969696" fill-rule="evenodd" data-name="パス 2091"/><path d="M8.826 39.835C7.713 30.735 3.19 32.485 0 28.234c2.245 8.909 1.937 11.41 8.826 11.6Z" fill="#969696" fill-rule="evenodd" data-name="パス 2092"/><path d="M42.549 69.56C23.833 62.233 10.904 44.533 9.524 30.02c-.99-10.423 1.098-15.234 11.56-28.172l-.125-.121C16.013 6.387 9.736 13.897 8.232 21.64c-1.47 7.555-.276 16.65 10.161 31.895 7.93 11.568 21.165 15.718 27.42 18.81 6.237 3.084 10.45 6.458 11.159 8.201.324-1.012.743-1.998-.087-3.314-2.769-2.202-7.372-4.947-14.336-7.672Z" fill="#969696" fill-rule="evenodd" data-name="パス 2093"/><path d="M30.722 67.342c-7.785-7.958-10.89-2.978-17.122-4.753 8.744 6.95 10.288 9.585 17.122 4.753Z" fill="#969696" fill-rule="evenodd" data-name="パス 2094"/><path d="M6.078 29.02c2.74-8.75-2.102-9.02-3.253-14.21C1.194 23.852-.12 26.004 6.078 29.02Z" fill="#969696" fill-rule="evenodd" data-name="パス 2095"/><path d="M23.392 72.651c11.906 5.489 14.405 7.984 20.812 1.148-11.101-6.806-13.223-.68-20.812-1.148Z" fill="#969696" fill-rule="evenodd" data-name="パス 2096"/><path d="M19.93 18.318c-2.653 4.705-9.578 2.42-9.738 11.902 7.287-1.15 9.113-5.681 9.738-11.902Z" fill="#969696" fill-rule="evenodd" data-name="パス 2097"/><path d="M9.051 3.885c-4.47 8.027-6.408 9.638-1.521 14.498 5.425-7.391.931-9.215 1.521-14.498Z" fill="#969696" fill-rule="evenodd" data-name="パス 2098"/><path d="M27.381 2.915c-3.28 3.28-8.784-.198-10.91 7.601 6.538.724 9.066-2.603 10.91-7.601Z" fill="#969696" fill-rule="evenodd" data-name="パス 2099"/><path d="M11.418 20.214c7.368.36 10.079-3.705 11.96-9.667-3.558 4.065-9.871.418-11.96 9.667Z" fill="#969696" fill-rule="evenodd" data-name="パス 2100"/><path d="M29.574-8c-3.606 2.32-10.32 3.424-7.842 9.126C27.51 2.153 27.59-3.454 29.574-8Z" fill="#969696" fill-rule="evenodd" data-name="パス 2101"/><path d="M22.22 32.008c-.84 5.875-8.818 6.307-5.216 16.073 6.984-4.09 7.048-9.458 5.216-16.073Z" fill="#969696" fill-rule="evenodd" data-name="パス 2102"/><path d="M17.23-3.46c-5.304 5.825-7.276 6.788-3.867 11.807C19.388 3.242 15.79.835 17.23-3.46Z" fill="#969696" fill-rule="evenodd" data-name="パス 2103"/><path d="M26.194 38.652c.267 6.524-8.372 8.53-2.46 18.41 6.812-5.774 5.8-11.6 2.46-18.41Z" fill="#969696" fill-rule="evenodd" data-name="パス 2104"/></g></svg>