<svg xmlns="http://www.w3.org/2000/svg" width="57.37" height="88.546" viewBox="277.63 -8 57.37 88.546"><g data-name="グループ 2504"><path d="M287.615 70.267c-2.935-9.416 1.816-14.326 9.477-18.812-4.471 6.004 2.68 12.925-9.477 18.812Z" fill="#969696" fill-rule="evenodd" data-name="パス 2087"/><path d="M300.854 64.822c-4.499-7.715-1.601-12.87 3.818-18.177-2.426 6.061 5.05 10.833-3.818 18.177Z" fill="#969696" fill-rule="evenodd" data-name="パス 2088"/><path d="M314.936 26.211c2 5.017 9.169 3.68 8.058 13.097-7.068-2.113-8.271-6.849-8.058-13.097Z" fill="#969696" fill-rule="evenodd" data-name="パス 2089"/><path d="M321.244 49.468c3.525-9.426 7.892-6.382 12.382-10.094-4.68 8.929-4.996 11.679-12.382 10.094Z" fill="#969696" fill-rule="evenodd" data-name="パス 2090"/><path d="M313.753 58.921c5.758-9.53 9.92-5.391 15.58-8.546-6.921 8.767-7.822 11.686-15.58 8.546Z" fill="#969696" fill-rule="evenodd" data-name="パス 2091"/><path d="M326.173 39.835c1.113-9.1 5.636-7.35 8.826-11.601-2.245 8.909-1.936 11.41-8.826 11.6Z" fill="#969696" fill-rule="evenodd" data-name="パス 2092"/><path d="M292.45 69.56c18.717-7.327 31.645-25.027 33.025-39.54.991-10.423-1.098-15.234-11.559-28.172l.124-.121c4.947 4.66 11.223 12.17 12.728 19.913 1.469 7.555.275 16.65-10.162 31.895-7.93 11.568-21.164 15.718-27.419 18.81-6.238 3.084-10.451 6.458-11.16 8.201-.323-1.012-.743-1.998.087-3.314 2.769-2.202 7.373-4.947 14.336-7.672Z" fill="#969696" fill-rule="evenodd" data-name="パス 2093"/><path d="M304.277 67.342c7.785-7.958 10.89-2.978 17.123-4.753-8.745 6.95-10.288 9.585-17.123 4.753Z" fill="#969696" fill-rule="evenodd" data-name="パス 2094"/><path d="M328.922 29.02c-2.741-8.75 2.102-9.02 3.253-14.21 1.63 9.042 2.944 11.194-3.253 14.21Z" fill="#969696" fill-rule="evenodd" data-name="パス 2095"/><path d="M311.608 72.651c-11.907 5.489-14.406 7.984-20.813 1.148 11.102-6.806 13.224-.68 20.813-1.148Z" fill="#969696" fill-rule="evenodd" data-name="パス 2096"/><path d="M315.07 18.318c2.652 4.705 9.577 2.42 9.737 11.902-7.286-1.15-9.113-5.681-9.738-11.902Z" fill="#969696" fill-rule="evenodd" data-name="パス 2097"/><path d="M325.948 3.885c4.47 8.027 6.408 9.638 1.521 14.498-5.425-7.391-.93-9.215-1.52-14.498Z" fill="#969696" fill-rule="evenodd" data-name="パス 2098"/><path d="M307.618 2.915c3.28 3.28 8.785-.198 10.91 7.601-6.538.724-9.066-2.603-10.91-7.601Z" fill="#969696" fill-rule="evenodd" data-name="パス 2099"/><path d="M323.581 20.214c-7.368.36-10.079-3.705-11.959-9.667 3.557 4.065 9.87.418 11.96 9.667Z" fill="#969696" fill-rule="evenodd" data-name="パス 2100"/><path d="M305.425-8c3.606 2.32 10.32 3.424 7.843 9.126-5.78 1.027-5.859-4.58-7.843-9.126Z" fill="#969696" fill-rule="evenodd" data-name="パス 2101"/><path d="M312.78 32.008c.84 5.875 8.817 6.307 5.215 16.073-6.984-4.09-7.048-9.458-5.215-16.073Z" fill="#969696" fill-rule="evenodd" data-name="パス 2102"/><path d="M317.77-3.46c5.303 5.825 7.275 6.788 3.866 11.807-6.024-5.105-2.426-7.512-3.866-11.807Z" fill="#969696" fill-rule="evenodd" data-name="パス 2103"/><path d="M308.805 38.652c-.267 6.524 8.372 8.53 2.46 18.41-6.812-5.774-5.8-11.6-2.46-18.41Z" fill="#969696" fill-rule="evenodd" data-name="パス 2104"/></g></svg>